<?xml version="1.0" encoding="UTF-8"?>
<svg id="Info" xmlns="http://www.w3.org/2000/svg" viewBox="0 0 540 540">
  <path d="M395.65,150.31h-251.3c-21.35,0-38.73,17.37-38.73,38.73v161.92c0,21.35,17.37,38.73,38.73,38.73h251.3c21.35,0,38.73-17.37,38.73-38.73v-161.92c0-21.35-17.37-38.73-38.73-38.73ZM205.67,368.69c4-31.94,31.33-56.72,64.33-56.72s60.32,24.78,64.33,56.72h-128.66ZM270,283.39c-20.02,0-36.3-16.29-36.3-36.3s16.29-36.3,36.3-36.3,36.3,16.29,36.3,36.3-16.29,36.3-36.3,36.3ZM413.38,350.96c0,9.78-7.95,17.73-17.73,17.73h-40.21c-3.15-33.42-25.53-61.33-55.94-72.5,16.65-10.04,27.81-28.29,27.81-49.11,0-31.6-25.71-57.3-57.3-57.3s-57.3,25.71-57.3,57.3c0,20.82,11.16,39.07,27.81,49.11-30.41,11.16-52.79,39.07-55.94,72.5h-40.21c-9.78,0-17.73-7.95-17.73-17.73v-161.92c0-9.78,7.95-17.73,17.73-17.73h251.3c9.78,0,17.73,7.95,17.73,17.73v161.92Z"/>
</svg>