<svg width="69" height="87" viewBox="0 0 69 87" fill="none" xmlns="http://www.w3.org/2000/svg">
<path d="M57.9159 0H10.8905C4.88506 0 0 4.88758 0 10.8961V76.1039C0 82.1124 4.88506 87 10.8905 87H57.9159C63.9213 87 68.8064 82.1124 68.8064 76.1039V10.8961C68.8064 4.88758 63.9213 0 57.9159 0ZM62.4817 76.1039C62.4817 78.623 60.4337 80.6721 57.9159 80.6721H10.8905C8.37266 80.6721 6.32467 78.623 6.32467 76.1039V10.8961C6.32467 8.37698 8.37266 6.32793 10.8905 6.32793H57.9159C60.4337 6.32793 62.4817 8.37698 62.4817 10.8961V76.1039Z" fill="white"/>
<path d="M51.5732 62.5712H16.4592C14.7124 62.5712 13.2969 63.9874 13.2969 65.7351C13.2969 67.4828 14.7124 68.8991 16.4592 68.8991H51.5732C53.32 68.8991 54.7355 67.4828 54.7355 65.7351C54.7355 63.9874 53.32 62.5712 51.5732 62.5712Z" fill="white"/>
<path d="M51.5732 40.6404H16.4592C14.7124 40.6404 13.2969 42.0566 13.2969 43.8043C13.2969 45.5521 14.7124 46.9683 16.4592 46.9683H51.5732C53.32 46.9683 54.7355 45.5521 54.7355 43.8043C54.7355 42.0566 53.32 40.6404 51.5732 40.6404Z" fill="white"/>
<path d="M51.5732 18.128H16.4592C14.7124 18.128 13.2969 19.5443 13.2969 21.292C13.2969 23.0397 14.7124 24.456 16.4592 24.456H51.5732C53.32 24.456 54.7355 23.0397 54.7355 21.292C54.7355 19.5443 53.32 18.128 51.5732 18.128Z" fill="white"/>
</svg>
