<?xml version="1.0" encoding="UTF-8"?>
<svg id="Info" xmlns="http://www.w3.org/2000/svg" viewBox="0 0 540 540">
  <path d="M348.07,125.64h-156.14c-19.94,0-36.16,16.22-36.16,36.16v216.4c0,19.94,16.22,36.16,36.16,36.16h156.14c19.94,0,36.16-16.22,36.16-36.16v-216.4c0-19.94-16.22-36.16-36.16-36.16ZM363.23,378.2c0,8.36-6.8,15.16-15.16,15.16h-156.14c-8.36,0-15.16-6.8-15.16-15.16v-216.4c0-8.36,6.8-15.16,15.16-15.16h156.14c8.36,0,15.16,6.8,15.16,15.16v216.4Z"/>
  <path d="M327.01,333.3h-116.59c-5.8,0-10.5,4.7-10.5,10.5s4.7,10.5,10.5,10.5h116.59c5.8,0,10.5-4.7,10.5-10.5s-4.7-10.5-10.5-10.5Z"/>
  <path d="M327.01,260.52h-116.59c-5.8,0-10.5,4.7-10.5,10.5s4.7,10.5,10.5,10.5h116.59c5.8,0,10.5-4.7,10.5-10.5s-4.7-10.5-10.5-10.5Z"/>
  <path d="M327.01,185.8h-116.59c-5.8,0-10.5,4.7-10.5,10.5s4.7,10.5,10.5,10.5h116.59c5.8,0,10.5-4.7,10.5-10.5s-4.7-10.5-10.5-10.5Z"/>
</svg>