<?xml version="1.0" encoding="UTF-8"?>
<svg id="Layer_1" data-name="Layer 1" xmlns="http://www.w3.org/2000/svg" viewBox="0 0 1080 1080">
  <defs>
    <style>
      .cls-1 {
        fill-rule: evenodd;
      }
    </style>
  </defs>
  <path class="cls-1" d="M548.91,44.83c-266.42,0-482.4,215.98-482.4,482.42,0,91.14,25.29,176.39,69.22,249.1l-87.07,258.82,267.09-85.51c69.12,38.2,148.6,60,233.16,60,266.45,0,482.43-216,482.43-482.42S815.37,44.82,548.91,44.82h0ZM548.91,928.84c-81.55,0-157.52-24.46-220.94-66.4l-154.33,49.4,50.16-149.13c-48.08-66.22-76.47-147.56-76.47-235.47,0-221.46,180.15-401.62,401.57-401.62s401.6,180.16,401.6,401.62-180.15,401.59-401.6,401.59h.01ZM775.11,636.87c-12.09-6.63-71.5-38.68-82.64-43.21-11.13-4.52-19.26-6.88-27.95,5.14-8.67,11.99-33.32,38.84-40.79,46.79-7.5,7.95-14.72,8.69-26.82,2.06-12.06-6.6-51.26-21.11-96.73-64.8-35.37-34.01-58.57-75.25-65.31-87.84-6.74-12.6-.05-19.02,6.35-24.91,5.74-5.32,12.86-13.94,19.29-20.89,6.41-6.95,8.67-12,13.08-20.07,4.41-8.06,2.64-15.34-.22-21.6-2.86-6.26-25.21-67.79-34.55-92.82-9.34-25.03-19.74-21.31-26.93-21.6-7.18-.25-15.36-1.59-23.57-1.9s-21.67,2.28-33.41,14.17c-11.74,11.9-44.67,40.49-46.94,101.1-2.27,60.57,39.65,120.78,45.5,129.21,5.85,8.45,80.06,139.79,203.38,193.81,123.35,53.99,124,37.53,146.62,36.32,22.65-1.2,73.97-27.08,85.31-55.43,11.35-28.36,12.25-53.01,9.36-58.26-2.89-5.24-10.97-8.65-23.06-15.26h.03Z"/>
</svg>