<?xml version="1.0" encoding="UTF-8"?>
<svg id="Layer_1" data-name="Layer 1" xmlns="http://www.w3.org/2000/svg" viewBox="0 0 422.68 421">
  <path d="M0,216.78h53.58c2.51,39.58,36.42,69.75,74.36,68.07,35.68-1.57,65.67-30.91,67.97-68.07h48.55c.16,8.09.17,50.75-33.38,84.85-27.45,27.92-60.48,32.91-70.44,34.03-12.01,1.88-45.03,5.38-78.27-13.24C4.94,290.24.26,221.9,0,216.78"/>
  <path d="M283.03,216.78h51.16c.24,14.16,0,84.61-55.16,142.43-62.26,65.23-144.71,62.21-156.79,61.55v-47.97c10.99-.92,94.5-9.16,137.61-79.15,18.2-29.56,22.33-58.96,23.18-76.87"/>
  <path d="M96.76,216.78h51.96c-1.3-10.25-10.46-92.44,44.77-140.58,9.2-8.02,34.83-29.71,71.41-29.26,4.82.05,25.08.67,46.31,12.83,49.4,28.26,57.94,92.48,60.46,111.52,5.38,40.41-3.22,71.7-11.08,99.18-8.09,28.24-24.63,72.03-60.76,118.32,11.46,10.73,22.94,21.47,34.4,32.2,17.41-18.05,41.83-47.66,60.74-89.76,21.33-47.52,25.69-88.81,26.88-107.6,1.24-19.58,3.51-62.11-14.05-111.2-5.74-16.06-13.17-36.21-31.22-56.94-3.37-3.89-19.71-20.79-46.38-36.06-12.05-6.9-34.33-17.44-63.96-19.19-45.44-2.68-78.75,17.11-90.33,24.79-14.62,9.18-33.46,23.84-49.57,46.36-42.85,59.93-32.63,128.31-29.58,145.39"/>
</svg>