<?xml version="1.0" encoding="UTF-8"?>
<svg id="Layer_1" data-name="Layer 1" xmlns="http://www.w3.org/2000/svg" viewBox="0 0 900 900">
  <defs>
    <style>
      .cls-1 {
        fill: #231f20;
      }
    </style>
  </defs>
  <path class="cls-1" d="M829.63,469.12c.13-.14.25-.29.38-.44.18-.2.36-.41.53-.62.17-.2.32-.41.49-.62.12-.16.25-.31.37-.47.17-.23.34-.47.5-.71.1-.14.2-.28.3-.43.17-.25.32-.5.48-.75.09-.14.18-.28.27-.42.15-.25.29-.5.43-.75.09-.16.18-.31.26-.47.13-.24.25-.48.37-.72.09-.18.18-.36.27-.54.1-.22.2-.44.3-.66.09-.21.19-.42.28-.64.08-.2.16-.39.23-.59.09-.24.19-.49.28-.73.06-.17.12-.35.18-.52.09-.27.18-.54.26-.82.05-.15.09-.31.13-.46.08-.3.17-.59.24-.89.04-.14.07-.28.1-.43.07-.31.14-.62.2-.93.03-.14.05-.29.08-.43.06-.31.11-.62.16-.93.02-.17.04-.33.06-.5.04-.29.08-.58.1-.87.02-.22.03-.44.05-.66.02-.24.04-.48.05-.72.02-.41.03-.83.03-1.24,0-.06,0-.11,0-.17s0-.11,0-.17c0-.41-.01-.83-.03-1.24-.01-.24-.03-.48-.05-.72-.02-.22-.03-.44-.05-.66-.03-.29-.07-.58-.1-.87-.02-.17-.04-.33-.06-.5-.05-.31-.1-.62-.16-.93-.03-.14-.05-.29-.08-.43-.06-.31-.13-.62-.2-.93-.03-.14-.06-.29-.1-.43-.07-.3-.16-.59-.24-.89-.04-.15-.08-.31-.13-.46-.08-.28-.17-.55-.26-.82-.06-.17-.11-.35-.18-.52-.09-.25-.18-.49-.28-.73-.08-.2-.15-.39-.23-.59-.09-.21-.18-.43-.28-.64-.1-.22-.19-.44-.3-.66-.09-.18-.18-.36-.27-.54-.12-.24-.24-.48-.37-.72-.08-.16-.17-.31-.26-.47-.14-.25-.28-.5-.43-.75-.09-.14-.18-.28-.27-.42-.16-.25-.31-.5-.48-.75-.1-.14-.2-.28-.3-.43-.16-.24-.33-.47-.5-.71-.12-.16-.24-.32-.37-.47-.16-.21-.32-.41-.49-.62-.17-.21-.35-.41-.53-.62-.13-.15-.25-.29-.38-.44-.32-.35-.65-.7-.99-1.04l-285.54-285.54c-11.13-11.13-29.18-11.13-40.3,0-11.13,11.13-11.13,29.17,0,40.3l236.9,236.9H91.5c-15.74,0-28.5,12.76-28.5,28.5s12.76,28.5,28.5,28.5h648.2l-236.9,236.9c-11.13,11.13-11.13,29.17,0,40.3,5.56,5.57,12.86,8.35,20.15,8.35s14.59-2.78,20.15-8.35l285.54-285.54c.34-.34.67-.68.99-1.04Z"/>
</svg>