<?xml version="1.0" encoding="UTF-8"?>
<svg id="Layer_1" data-name="Layer 1" xmlns="http://www.w3.org/2000/svg" viewBox="0 0 1080 1110.69">
  <path d="M893.7,61.56H186.99c-77.32,0-140,62.68-140,140v706.71c0,77.32,62.68,140,140,140h706.71c77.32,0,140-62.68,140-140V201.56c0-77.32-62.68-140-140-140ZM946.22,879.58c0,44.85-36.36,81.21-81.21,81.21H215.68c-44.85,0-81.21-36.36-81.21-81.21V230.26c0-44.85,36.36-81.21,81.21-81.21h649.32c44.85,0,81.21,36.36,81.21,81.21v649.32Z"/>
  <rect x="284.32" y="445.69" width="123.23" height="358.14" rx="8.53" ry="8.53"/>
  <path d="M345.97,276.13c-38.63,0-70.06,31.39-70.06,69.98s31.43,70.01,70.06,70.01,70-31.41,70-70.01c0-38.59-31.4-69.98-70-69.98Z"/>
  <path d="M669.07,437.22c-42.64,0-74.16,18.33-93.28,39.16v-22.15c0-4.71-3.82-8.53-8.53-8.53h-101.68c-4.71,0-8.53,3.82-8.53,8.53v341.08c0,4.71,3.82,8.53,8.53,8.53h105.94c4.71,0,8.53-3.82,8.53-8.53v-168.76c0-56.87,15.45-79.02,55.09-79.02,43.17,0,46.6,35.52,46.6,81.95v165.83c0,4.71,3.82,8.53,8.53,8.53h105.98c4.71,0,8.53-3.82,8.53-8.53v-187.09c0-84.56-16.12-171-135.71-171Z"/>
</svg>