<?xml version="1.0" encoding="UTF-8"?>
<svg id="Layer_1" data-name="Layer 1" xmlns="http://www.w3.org/2000/svg" viewBox="0 0 1080 1080">
  <path d="M801.28,214.36c-32.74.41-58.9,26.85-58.93,59.54-.03,32.62,27.38,59.76,60.29,59.72,32.76-.06,59.27-27.29,58.97-60.57-.31-33.64-26.51-59.12-60.32-58.68h-.01Z"/>
  <path d="M540.45,285.84c-142.27,1.02-255.72,114.07-254.69,253.8,1.06,143.33,114.07,255.79,255.97,254.7,141.31-1.08,253.6-114.91,252.51-255.97-1.1-140.37-114.82-253.51-253.79-252.52h0ZM541.18,705.04c-90.48.61-165.5-73.36-166.13-163.79-.62-90.53,73.17-165.38,163.77-166.13,90.38-.74,165.51,73.32,166.14,163.77.62,90.5-73.34,165.54-163.78,166.14h0Z"/>
  <path d="M1033.19,397.66c-1.06-45.72-4.08-91.92-12.2-136.83-13.58-75.06-54.24-133.91-120.31-173.52-50.4-30.21-106.42-40.08-164.15-41.24-66.5-1.35-133.03-.79-199.54-1.45,0,.46,0-.46,0,0-46.29.36-92.63,0-138.84,2.18-45.73,2.15-92.13,3.47-136.82,12.31-98.89,19.6-165.99,78.58-198.44,175.09-16.74,49.77-18.06,101.61-18.22,153.22-.3,98.35-.12,196.74,2.15,295.05,1.05,45.73,3.31,92.15,12.28,136.8,19.86,98.79,78.91,165.88,175.56,198.09,49.81,16.61,101.64,17.9,153.25,18.05,97.99.29,196.01.12,293.97-2.14,45.73-1.05,92.11-3.35,136.8-12.21,98.92-19.6,165.99-78.6,198.44-175.12,16.75-49.78,18.05-101.61,18.21-153.23.3-98.34.12-196.73-2.15-295.05h.02-.01ZM946.45,528.97c-1.41,75.53-.56,151.12-3.64,226.58-2.28,55.91-19.66,106.45-65.38,143.34-28.19,22.75-61.13,34.52-96.38,38.28-37.68,4.03-75.65,6.44-113.53,7.14-82.81,1.55-165.65,2.57-248.44,1.81-43.98-.41-88.6-1.02-131.73-8.5-83.97-14.58-136.24-72.23-144.34-157.3-5.4-56.76-7.14-113.98-7.79-171.03-1.01-89.64-.39-179.33,1.04-268.98.38-23.6,3.91-47.74,10.07-70.55,19.24-71.16,67.86-112.5,139.35-124.23,41.17-6.75,83.39-8.65,125.19-9.61,83.87-1.92,167.8-2.77,251.7-1.9,44.31.46,89.31,1.38,132.69,9.28,82.53,15.03,132.81,72.33,141.96,156,4.07,37.3,5.81,74.92,7.09,112.47,1.34,39.02,1.85,78.1,2.15,117.17.67,0-.67,0,0,.03h-.01Z"/>
</svg>