<svg xmlns="http://www.w3.org/2000/svg" width="19.813" height="19.813" viewBox="0 0 19.813 19.813">
  <g id="SVG" transform="translate(-1.688 -1.688)">
    <path id="Vector" d="M16.908,2.9a9.9,9.9,0,1,1-7-2.9,9.917,9.917,0,0,1,7,2.9Zm-.6,1.6a8.4,8.4,0,0,0-4.243-2.7,14.214,14.214,0,0,1,2.393,7.334h3.794A8.4,8.4,0,0,0,16.31,4.507Zm-3.378,6.161H6.88a12.215,12.215,0,0,0,3.026,7.61,12.219,12.219,0,0,0,3.026-7.61Zm0-1.524a12.215,12.215,0,0,0-3.026-7.61A12.2,12.2,0,0,0,6.88,9.144ZM3.5,4.507A8.4,8.4,0,0,0,1.559,9.144H5.353A14.214,14.214,0,0,1,7.746,1.81,8.4,8.4,0,0,0,3.5,4.507Zm0,10.8A8.4,8.4,0,0,0,7.746,18a14.214,14.214,0,0,1-2.393-7.334H1.559A8.4,8.4,0,0,0,3.5,15.306Zm12.807,0a8.4,8.4,0,0,0,1.943-4.637H14.459A14.231,14.231,0,0,1,12.067,18a8.4,8.4,0,0,0,4.243-2.7Z" transform="translate(1.687 1.688)"/>
  </g>
</svg>
