<?xml version="1.0" encoding="UTF-8"?>
<svg id="Layer_1" data-name="Layer 1" xmlns="http://www.w3.org/2000/svg" viewBox="0 0 1850.82 414.4">
  <defs>
    <style>
      .cls-1 {
        fill: #5000ff;
      }

      .cls-2 {
        fill: #fff;
      }
    </style>
  </defs>
  <g>
    <path d="M623.95,377.38V64.11h53.17l106.78,211.69,106.34-211.69h53.61v313.27h-45.06v-234.95l-97.76,191.1h-34.7l-97.32-190.65v234.51h-45.06Z"/>
    <path d="M1033.05,109.31c-8.71,0-15.85-2.68-21.4-8.05-5.56-5.37-8.33-12.23-8.33-20.59s2.77-14.69,8.33-19.92c5.56-5.21,12.69-7.83,21.4-7.83s15.47,2.61,21.18,7.83c5.71,5.22,8.56,11.86,8.56,19.92s-2.85,15.21-8.56,20.59c-5.71,5.37-12.77,8.05-21.18,8.05ZM1010.07,377.38v-225.56h45.06v225.56h-45.06Z"/>
    <path d="M1119.56,377.38v-225.56h40.55l3.15,31.78c7.2-11.64,16.81-20.74,28.84-27.3,12-6.56,25.53-9.84,40.54-9.84,11.42,0,21.77,1.57,31.09,4.7,9.3,3.13,17.56,7.83,24.78,14.1,7.2,6.27,13.06,14.03,17.57,23.27,8.11-13.12,18.99-23.42,32.66-30.88,13.67-7.45,28.16-11.19,43.48-11.19,18.32,0,34.09,3.66,47.31,10.96,13.21,7.31,23.28,18.21,30.19,32.67,6.91,14.47,10.37,32.45,10.37,53.93v133.36h-44.61v-128.89c0-20.88-4.28-36.7-12.84-47.44-8.56-10.74-21.11-16.11-37.62-16.11-11.12,0-21.03,2.84-29.74,8.5-8.71,5.67-15.55,13.88-20.5,24.61-4.96,10.74-7.43,23.87-7.43,39.39v119.94h-45.07v-128.89c0-20.88-4.27-36.7-12.83-47.44-8.56-10.74-21.11-16.11-37.62-16.11-10.52,0-20.13,2.84-28.84,8.5-8.72,5.67-15.63,13.88-20.73,24.61-5.11,10.74-7.66,23.87-7.66,39.39v119.94h-45.06Z"/>
    <path d="M1554.35,109.31c-8.71,0-15.85-2.68-21.4-8.05-5.56-5.37-8.33-12.23-8.33-20.59s2.77-14.69,8.33-19.92c5.56-5.21,12.69-7.83,21.4-7.83s15.47,2.61,21.18,7.83c5.71,5.22,8.56,11.86,8.56,19.92s-2.85,15.21-8.56,20.59c-5.71,5.37-12.77,8.05-21.18,8.05ZM1531.37,377.38v-225.56h45.06v225.56h-45.06Z"/>
    <path d="M1745.83,382.75c-21.92,0-41.44-5-58.57-14.99-17.12-10-30.57-23.79-40.32-41.4-9.77-17.59-14.65-38.04-14.65-61.31s4.88-44.23,14.65-61.98c9.76-17.75,23.2-31.62,40.32-41.62,17.12-9.99,36.64-14.99,58.57-14.99,27.63,0,50.76,7.16,69.39,21.48,18.62,14.32,30.48,33.72,35.59,58.18h-46.86c-3-13.13-9.84-23.27-20.5-30.44-10.67-7.16-23.36-10.74-38.08-10.74-12.01,0-23.13,3.06-33.34,9.18-10.22,6.12-18.4,15.07-24.56,26.85-6.16,11.79-9.23,26.33-9.23,43.63,0,12.83,1.8,24.25,5.41,34.24,3.6,10,8.48,18.43,14.64,25.29,6.16,6.87,13.29,12.01,21.4,15.44,8.1,3.43,16.66,5.15,25.68,5.15,9.92,0,18.85-1.57,26.81-4.7,7.95-3.13,14.71-7.83,20.28-14.1,5.55-6.26,9.38-13.71,11.49-22.37h46.86c-5.12,23.87-16.97,43.04-35.59,57.51-18.63,14.48-41.76,21.7-69.39,21.7Z"/>
  </g>
  <path class="cls-1" d="M291.78,414.4H122.62C55.18,414.4,0,359.22,0,291.78V122.62C0,55.18,55.18,0,122.62,0h169.16C359.22,0,414.4,55.18,414.4,122.62v169.16c0,67.44-55.18,122.62-122.62,122.62"/>
  <path class="cls-2" d="M71.26,203.02h31.68c1.48,23.4,21.53,41.23,43.96,40.24,21.09-.93,38.82-18.27,40.18-40.24h28.7c.09,4.78.1,30-19.73,50.16-16.23,16.5-35.75,19.46-41.64,20.12-7.1,1.11-26.62,3.18-46.27-7.83-33.96-19.03-36.73-59.43-36.88-62.46"/>
  <path class="cls-2" d="M238.58,203.02h30.25c.14,8.37,0,50.02-32.61,84.2-36.81,38.56-85.55,36.78-92.69,36.39v-28.36c6.5-.54,55.86-5.42,81.35-46.79,10.76-17.47,13.2-34.86,13.7-45.44"/>
  <path class="cls-2" d="M128.47,203.02h30.72c-.77-6.06-6.18-54.65,26.47-83.11,5.44-4.74,20.59-17.57,42.21-17.3,2.85.03,14.83.4,27.38,7.58,29.2,16.71,34.25,54.67,35.74,65.93,3.18,23.89-1.9,42.39-6.55,58.63-4.78,16.7-14.56,42.58-35.92,69.95,6.77,6.35,13.56,12.69,20.33,19.04,10.29-10.67,24.73-28.17,35.91-53.06,12.61-28.09,15.18-52.5,15.89-63.61.74-11.58,2.07-36.71-8.31-65.74-3.39-9.49-7.79-21.41-18.45-33.66-1.99-2.3-11.65-12.29-27.42-21.32-7.12-4.08-20.29-10.31-37.81-11.34-26.86-1.58-46.56,10.12-53.4,14.65-8.64,5.43-19.78,14.09-29.31,27.41-25.33,35.43-19.29,75.85-17.48,85.95"/>
</svg>