<?xml version="1.0" encoding="UTF-8"?>
<svg id="Layer_1" data-name="Layer 1" width="31.88" height="32" xmlns="http://www.w3.org/2000/svg" viewBox="0 0 414.4 414.4">
  <defs>
    <style>
      .cls-1 {
        fill: #5000ff;
      }

      .cls-2 {
        fill: #fff;
      }
    </style>
  </defs>
  <path class="cls-1" d="M291.78,414.4H122.62C55.18,414.4,0,359.22,0,291.78V122.62C0,55.18,55.18,0,122.62,0h169.16c67.44,0,122.62,55.18,122.62,122.62v169.16c0,67.44-55.18,122.62-122.62,122.62"/>
  <path class="cls-2" d="M71.26,203.02h31.68c1.48,23.4,21.53,41.23,43.96,40.24,21.09-.93,38.82-18.27,40.18-40.24h28.7c.09,4.78.1,30-19.73,50.16-16.23,16.5-35.75,19.46-41.64,20.12-7.1,1.11-26.62,3.18-46.27-7.83-33.96-19.03-36.73-59.43-36.88-62.46"/>
  <path class="cls-2" d="M238.58,203.02h30.25c.14,8.37,0,50.02-32.61,84.2-36.81,38.56-85.55,36.78-92.69,36.39v-28.36c6.5-.54,55.86-5.42,81.35-46.79,10.76-17.47,13.2-34.86,13.7-45.44"/>
  <path class="cls-2" d="M128.47,203.02h30.72c-.77-6.06-6.18-54.65,26.47-83.11,5.44-4.74,20.59-17.57,42.21-17.3,2.85.03,14.83.4,27.38,7.58,29.2,16.71,34.25,54.67,35.74,65.93,3.18,23.89-1.9,42.39-6.55,58.63-4.78,16.7-14.56,42.58-35.92,69.95,6.77,6.35,13.56,12.69,20.33,19.04,10.29-10.67,24.73-28.17,35.91-53.06,12.61-28.09,15.18-52.5,15.89-63.61.74-11.58,2.07-36.71-8.31-65.74-3.39-9.49-7.79-21.41-18.45-33.66-1.99-2.3-11.65-12.29-27.42-21.32-7.12-4.08-20.29-10.31-37.81-11.34-26.86-1.58-46.56,10.12-53.4,14.65-8.64,5.43-19.78,14.09-29.31,27.41-25.33,35.43-19.29,75.85-17.48,85.95"/>
</svg>