<?xml version="1.0" encoding="UTF-8"?>
<svg id="Info" xmlns="http://www.w3.org/2000/svg" viewBox="0 0 540 540">
  <path d="M395.65,150.31h-251.3c-21.35,0-38.73,17.37-38.73,38.73v161.92c0,21.35,17.37,38.73,38.73,38.73h251.3c21.35,0,38.73-17.37,38.73-38.73v-161.92c0-21.35-17.37-38.73-38.73-38.73ZM413.38,350.96c0,9.78-7.95,17.73-17.73,17.73h-251.3c-9.78,0-17.73-7.95-17.73-17.73v-161.92c0-9.78,7.95-17.73,17.73-17.73h251.3c9.78,0,17.73,7.95,17.73,17.73v161.92Z"/>
  <path d="M327.73,213.04l-78.59,80.27-36.96-36.77c-4.11-4.09-10.76-4.07-14.85.04-4.09,4.11-4.07,10.76.04,14.85l44.46,44.24c1.97,1.96,4.63,3.06,7.41,3.06.02,0,.05,0,.07,0,2.8-.02,5.48-1.15,7.43-3.15l86-87.83c4.06-4.14,3.99-10.79-.16-14.85-4.14-4.06-10.79-3.99-14.85.16Z"/>
</svg>