<?xml version="1.0" encoding="UTF-8"?>
<svg id="Info" xmlns="http://www.w3.org/2000/svg" viewBox="0 0 540 540">
  <defs>
    <style>
      .cls-1 {
        fill: #fff;
      }
    </style>
  </defs>
  <path class="cls-1" d="M133.88,188.17h-35.83c-20.18,0-36.6,16.42-36.6,36.6v90.45c0,20.18,16.42,36.6,36.6,36.6h35.83c20.18,0,36.6-16.42,36.6-36.6v-90.45c0-20.18-16.42-36.6-36.6-36.6ZM149.48,315.23c0,8.6-7,15.6-15.6,15.6h-35.83c-8.6,0-15.6-7-15.6-15.6v-90.45c0-8.6,7-15.6,15.6-15.6h35.83c8.6,0,15.6,7,15.6,15.6v90.45Z"/>
  <path class="cls-1" d="M287.92,188.17h-35.83c-20.18,0-36.6,16.42-36.6,36.6v90.45c0,20.18,16.42,36.6,36.6,36.6h35.83c20.18,0,36.6-16.42,36.6-36.6v-90.45c0-20.18-16.42-36.6-36.6-36.6ZM303.52,315.23c0,8.6-7,15.6-15.6,15.6h-35.83c-8.6,0-15.6-7-15.6-15.6v-90.45c0-8.6,7-15.6,15.6-15.6h35.83c8.6,0,15.6,7,15.6,15.6v90.45Z"/>
  <path class="cls-1" d="M441.96,188.17h-35.83c-20.18,0-36.6,16.42-36.6,36.6v90.45c0,20.18,16.42,36.6,36.6,36.6h35.83c20.18,0,36.6-16.42,36.6-36.6v-90.45c0-20.18-16.42-36.6-36.6-36.6ZM457.56,315.23c0,8.6-7,15.6-15.6,15.6h-35.83c-8.6,0-15.6-7-15.6-15.6v-90.45c0-8.6,7-15.6,15.6-15.6h35.83c8.6,0,15.6,7,15.6,15.6v90.45Z"/>
</svg>